<svg xmlns="http://www.w3.org/2000/svg" viewBox="0 0 90 90" width="90" height="90" fill="currentColor">
  <path d="M23.08 2.4l2.91 57.23h10.3l2.91-57.23zM50.6 2.4l2.91 57.23h10.3l2.91-57.23zM31.14 69.82c-2.72 0-4.87.78-6.44 2.35s-2.35 3.71-2.35 6.44.78 4.87 2.35 6.44 3.71 2.35 6.44 2.35 4.87-.78 6.44-2.35 2.35-3.71 2.35-6.44-.78-4.87-2.35-6.44-3.71-2.35-6.44-2.35zM58.66 69.82c-2.73 0-4.87.78-6.44 2.35s-2.35 3.71-2.35 6.44.78 4.87 2.35 6.44 3.71 2.35 6.44 2.35 4.87-.78 6.44-2.35 2.35-3.71 2.35-6.44-.78-4.87-2.35-6.44-3.71-2.35-6.44-2.35z"/>
</svg>

