<svg xmlns="http://www.w3.org/2000/svg" width="90" height="90" viewBox="0 0 89.8 89.8">
  <path 
    fill="currentColor" 
    d="M64.042-72.401q6.01-.81 11.904-2.774 5.894-1.965 7.743-3.467l2.31-1.733q1.85-1.387 3.006-3.698 1.155-2.196 1.155-5.2 0-4.046-1.618-7.05-1.618-2.89-5.547-5.432l-2.08-1.271q-3.93-2.427-6.587-4.623-2.543-2.311-4.507-6.01-1.85-3.813-1.85-9.36 0-8.783 1.734-13.29 1.734-4.622 6.125-6.472 4.507-1.964 13.175-1.964 8.667 0 13.405 2.08 4.854 2.08 6.934 6.934 2.08 4.738 2.08 13.406 0 10.516-.693 17.797-.578 7.28-2.543 13.405-2.08 6.703-4.276 10.748-2.195 4.044-5.431 7.28-5.778 5.779-17.335 9.939-4.391 1.502-9.707 2.427-5.2 1.04-7.397 1.04z" 
    transform="translate(-42.833 147.117)"/>
</svg>
