<?xml version="1.0" encoding="UTF-8" standalone="no"?>
<!-- Created with Inkscape (http://www.inkscape.org/) -->

<svg
   width="89.800011mm"
   height="89.800003mm"
   viewBox="0 0 89.800011 89.800003"
   version="1.1"
   id="svg1"
   xmlns="http://www.w3.org/2000/svg"
   xmlns:svg="http://www.w3.org/2000/svg">
  <defs
     id="defs1" />
  <g
     id="layer1"
     transform="translate(-286.92151,143.19191)">
    <rect
       style="fill:#ffffff;fill-opacity:0;stroke:none;stroke-width:0.200001;stroke-linecap:square;stroke-linejoin:round;stroke-miterlimit:10;paint-order:fill markers stroke"
       id="rect8"
       width="89.799995"
       height="89.800003"
       x="286.92151"
       y="-143.19191"
       rx="5.6387275e-08"
       ry="5.6387272e-08" />
    <path
       id="text8"
       style="font-size:176.389px;line-height:1.25;font-family:JuliaMono;-inkscape-font-specification:JuliaMono;stroke-width:0.264583"
       d="m 309.99983,-140.7919 2.91197,57.226481 h 10.30273 l 2.91197,-57.226481 z m 27.51667,0 2.91145,57.226481 h 10.30325 l 2.91145,-57.226481 z m -19.45308,67.41759 c -2.72507,0 -4.87154,0.783942 -6.4394,2.351795 -1.56785,1.567852 -2.35179,3.714322 -2.35179,6.4394 0,2.725073 0.78394,4.871548 2.35179,6.4394 1.56786,1.567853 3.71433,2.351795 6.4394,2.351795 2.72508,0 4.87155,-0.783942 6.4394,-2.351795 1.56786,-1.567852 2.35128,-3.714327 2.35128,-6.4394 0,-2.725078 -0.78342,-4.871548 -2.35128,-6.4394 -1.56785,-1.567853 -3.71432,-2.351795 -6.4394,-2.351795 z m 27.51615,0 c -2.72507,0 -4.87154,0.783942 -6.4394,2.351795 -1.56785,1.567852 -2.35179,3.714322 -2.35179,6.4394 0,2.725073 0.78394,4.871548 2.35179,6.4394 1.56786,1.567853 3.71433,2.351795 6.4394,2.351795 2.72508,0 4.87155,-0.783942 6.4394,-2.351795 1.56786,-1.567852 2.3518,-3.714327 2.3518,-6.4394 0,-2.725078 -0.78394,-4.871548 -2.3518,-6.4394 -1.56785,-1.567853 -3.71432,-2.351795 -6.4394,-2.351795 z" />
  </g>
</svg>
